<?xml version="1.0" standalone="no"?>
<!DOCTYPE svg PUBLIC "-//W3C//DTD SVG 20010904//EN"
 "http://www.w3.org/TR/2001/REC-SVG-20010904/DTD/svg10.dtd">
<svg version="1.0" xmlns="http://www.w3.org/2000/svg"
 width="700.000000pt" height="700.000000pt" viewBox="0 0 700.000000 700.000000"
 preserveAspectRatio="xMidYMid meet">
<metadata>
Created by potrace 1.14, written by Peter Selinger 2001-2017
</metadata>
<g transform="translate(0.000000,700.000000) scale(0.100000,-0.100000)"
fill="#000000" stroke="none">
<path d="M1030 3495 l0 -3005 434 0 434 0 118 133 c65 72 121 134 124 137 3 3
59 66 125 140 66 74 127 141 135 150 8 9 42 47 75 84 33 38 71 81 85 96 34 38
132 148 290 325 74 83 139 155 145 161 5 6 37 41 70 79 33 37 65 73 70 79 6 6
48 54 95 106 47 52 90 100 95 106 6 6 37 41 70 78 33 38 70 80 84 95 13 14 40
44 60 66 20 22 72 80 116 130 44 49 85 95 90 101 6 6 39 44 75 84 36 41 72 81
80 90 8 8 121 135 251 280 129 146 259 290 287 320 28 30 52 60 52 65 0 8
-252 313 -540 655 -32 38 -216 258 -418 500 -30 36 -64 76 -76 90 -12 14 -66
79 -121 145 -54 66 -102 122 -105 125 -3 3 -25 30 -50 60 -25 30 -47 57 -50
60 -3 3 -60 70 -126 150 -272 327 -693 829 -745 890 -12 14 -38 45 -58 70 -20
25 -38 47 -41 50 -7 7 -58 67 -105 125 -22 27 -66 80 -98 117 l-59 68 -434 0
-434 0 0 -3005z"/>
<path d="M2550 6295 l0 -205 227 -273 c125 -149 230 -274 233 -277 3 -3 37
-43 75 -90 39 -47 82 -98 96 -115 15 -16 187 -223 384 -460 197 -236 369 -443
383 -460 25 -29 412 -492 442 -529 8 -10 33 -39 55 -63 22 -25 47 -55 55 -67
8 -12 26 -34 41 -51 27 -31 126 -148 189 -225 19 -23 43 -52 53 -63 17 -20 17
-21 -6 -46 -13 -14 -57 -64 -98 -111 -40 -47 -76 -87 -79 -90 -3 -3 -45 -50
-94 -105 -123 -138 -227 -254 -251 -281 -11 -12 -45 -50 -77 -85 -31 -35 -68
-77 -83 -94 -46 -51 -75 -84 -240 -270 -88 -99 -164 -185 -170 -191 -5 -6 -39
-43 -75 -83 -36 -40 -74 -83 -85 -95 -11 -13 -49 -56 -85 -96 -36 -41 -72 -81
-80 -90 -8 -8 -87 -97 -175 -195 -153 -173 -202 -228 -254 -284 -13 -14 -49
-55 -80 -90 -31 -35 -61 -69 -67 -75 -5 -6 -63 -72 -129 -146 -65 -74 -126
-144 -136 -155 -18 -20 -18 -26 -3 -115 9 -52 17 -102 19 -110 2 -8 6 -39 10
-68 l7 -52 385 0 384 0 22 24 c32 35 80 87 197 216 58 63 109 120 115 126 5 6
44 48 85 94 41 46 82 90 91 99 8 9 60 66 114 126 55 61 118 130 140 155 23 25
70 77 106 115 62 68 208 229 259 285 14 15 63 69 110 120 47 51 90 98 95 104
66 74 117 131 159 176 28 30 91 100 141 155 49 55 97 107 105 115 8 8 35 38
59 65 25 28 70 77 100 110 31 34 92 101 136 150 44 48 89 98 100 110 11 11 40
43 64 70 25 28 88 97 140 154 53 57 103 112 112 123 25 27 172 190 185 203 11
11 -42 75 -456 555 -26 30 -94 109 -151 176 -154 179 -195 226 -219 254 -11
14 -29 34 -38 45 -9 11 -103 119 -207 241 -105 121 -211 245 -236 275 -26 30
-62 72 -81 94 -35 39 -170 196 -212 245 -22 26 -375 437 -412 480 -61 71 -356
414 -399 465 -27 32 -54 63 -60 69 -5 6 -50 57 -99 114 l-88 102 -374 0 -374
0 0 -205z"/>
</g>
</svg>
