<svg xmlns="http://www.w3.org/2000/svg" viewBox="0 0 680.12 124.28"><defs><style>.cls-1{fill:#21599e;}.cls-2{fill:#66bdea;}.cls-3,.cls-6{fill:#20599c;stroke:#20599c;}.cls-3,.cls-4,.cls-5,.cls-6{stroke-miterlimit:10;}.cls-4{fill:#62c0ed;stroke:#62c0ed;}.cls-5{fill:#231f20;stroke:#231f20;}.cls-6{font-size:26.37px;font-family:Verdana-Italic, Verdana;font-style:italic;}</style></defs><g id="Protection_Direct" data-name="Protection Direct"><path class="cls-1" d="M23.64,296.7H44.4q13.76,0,13.76,14.51v25.11q0,14.39-13.64,14.39H35v30.66H23.64ZM35,340.45h7.23q4.52,0,4.51-4.95V311.91q0-4.95-5.1-5H35Z" transform="translate(-23.64 -296.03)"/><path class="cls-1" d="M67.17,296.7h22.3q13.05,0,13,14.51v20.87q0,11.09-6.76,14l7.94,35.26H92.91l-7.47-34.2H78.56v34.2H67.17Zm11.39,40.8H86q5.1,0,5.1-6.13V313.09q0-6.13-5.1-6.13H78.56Z" transform="translate(-23.64 -296.03)"/><path class="cls-1" d="M125.17,381.37q-13.76,0-13.76-14.39V311.21q0-14.5,13.64-14.51H136q13.64,0,13.64,14.51V367q0,14.38-13.76,14.39Zm2.73-10.26h5.81q4.51,0,4.51-4.95V311.91q0-4.95-5.1-5h-5.34q-5,0-5,5v54.25Q122.8,371.11,127.9,371.11Z" transform="translate(-23.64 -296.03)"/><path class="cls-1" d="M177.84,307v74.41H166.45V307H155.54V296.7h33.21V307Z" transform="translate(-23.64 -296.03)"/><path class="cls-1" d="M195.27,381.37V296.7H223.5V307H206.66v25.71H221.6v10.26H206.66v28.18H223.5v10.26Z" transform="translate(-23.64 -296.03)"/><path class="cls-1" d="M265.73,361.56V367q0,14.38-13.64,14.39h-7.36q-13.64,0-13.64-14.39V311.09q0-14.38,13.64-14.39h7.36q13.64,0,13.64,14.39v9.55H254.34v-8.73q0-4.95-5.1-5H247q-4.52,0-4.51,5v54.25q0,4.95,4.51,4.95h2.84q4.51,0,4.51-4.95v-4.6Z" transform="translate(-23.64 -296.03)"/><path class="cls-1" d="M292.77,307v74.41H281.38V307H270.47V296.7h33.21V307Z" transform="translate(-23.64 -296.03)"/><path class="cls-1" d="M310.21,381.37V296.7h11.38v84.67Z" transform="translate(-23.64 -296.03)"/><path class="cls-1" d="M345.43,381.37q-13.76,0-13.76-14.39V311.21q0-14.5,13.65-14.51h10.91q13.63,0,13.64,14.51V367q0,14.38-13.76,14.39Zm2.73-10.26H354q4.51,0,4.51-4.95V311.91q0-4.95-5.1-5H348q-5,0-5,5v54.25Q343.06,371.11,348.16,371.11Z" transform="translate(-23.64 -296.03)"/><path class="cls-1" d="M403.55,337.62V296.7h11.39v84.67H403.55V364.5l-12.21-38.56v55.43H380V296.7h11.39Z" transform="translate(-23.64 -296.03)"/><path class="cls-2" d="M528.45,381.37V296.7h11.39v84.67Z" transform="translate(-23.64 -296.03)"/><path class="cls-2" d="M550.51,296.7h22.3q13.05,0,13.05,14.51v20.87q0,11.09-6.76,14l7.95,35.26h-10.8l-7.47-34.2H561.9v34.2H550.51Zm11.39,40.8h7.47q5.1,0,5.1-6.13V313.09q0-6.13-5.1-6.13H561.9Z" transform="translate(-23.64 -296.03)"/><path class="cls-2" d="M595.35,381.37V296.7h28.23V307H606.73v25.71h14.95v10.26H606.73v28.18h16.85v10.26Z" transform="translate(-23.64 -296.03)"/><path class="cls-2" d="M665.8,361.56V367q0,14.38-13.64,14.39h-7.35q-13.65,0-13.64-14.39V311.09q0-14.38,13.64-14.39h7.35q13.65,0,13.64,14.39v9.55H654.42v-8.73q0-4.95-5.1-5h-2.26q-4.5,0-4.5,5v54.25q0,4.95,4.5,4.95h2.85c3,0,4.51-1.65,4.51-4.95v-4.6Z" transform="translate(-23.64 -296.03)"/><path class="cls-2" d="M692.85,307v74.41H681.46V307H670.55V296.7h33.21V307Z" transform="translate(-23.64 -296.03)"/><path class="cls-2" d="M502.36,296.7H482.55v25.72l11.38,13.34V307h7.95q5.1,0,5.1,6.13v54.24q0,3.78-4.51,3.78h-8.54l0-26.32-11.41,12.54v24h22.18q13.63,0,13.64-12.27V313Q518.37,296.7,502.36,296.7Z" transform="translate(-23.64 -296.03)"/><polygon class="cls-3" points="400.36 0.5 400.36 85.34 412.03 85.34 448.69 44.31 412.03 0.5 400.36 0.5"/><polygon class="cls-4" points="422.03 0.5 432.03 0.5 469.69 44.31 432.36 85.34 422.03 85.34 421.36 81.35 454.36 44.35 422.03 5.64 422.03 0.5"/><path class="cls-5" d="M457.25,387" transform="translate(-23.64 -296.03)"/></g><g id="Text"><text class="cls-6" transform="translate(380.56 115.79) scale(0.96 1)">for your peace of mind</text></g></svg>