<svg id="_ÎÓÈ_1" data-name="—ÎÓÈ_1" xmlns="http://www.w3.org/2000/svg" viewBox="0 0 523.82 523.65"><path d="M1847.6,697.47q1.56,11.92-7.25,20.74l-68.95,68.43a38.91,38.91,0,0,1-12.2,8.82,50.17,50.17,0,0,1-14.77,4.66c-.35,0-1.38.1-3.11.27s-4,.25-6.74.25q-9.84,0-31.88-3.36t-53.92-16.61q-31.9-13.21-72.33-39.65t-86.07-72.58q-36.29-35.78-60.13-68.43t-38.37-60.4q-14.52-27.75-21.78-50.29t-9.84-38.9q-2.61-16.31-2.09-25.65c.35-6.23.53-9.68.53-10.37a50.29,50.29,0,0,1,4.67-14.77,38.61,38.61,0,0,1,8.81-12.19l69-68.95c4.85-4.84,10.37-7.26,16.6-7.26a19.24,19.24,0,0,1,11.92,3.9,35.63,35.63,0,0,1,8.81,9.58L1533.94,430a25.19,25.19,0,0,1,2.59,18.14,32.29,32.29,0,0,1-8.81,16.59l-25.41,25.41a8.56,8.56,0,0,0-1.81,3.38,12.38,12.38,0,0,0-.78,3.89c1.38,7.24,4.49,15.56,9.33,24.89q6.21,12.4,19.19,30.32t36.81,41.2q23.33,23.88,41.47,37.08t30.34,19.45q12.18,6.23,18.66,7.51l6.47,1.3a12.52,12.52,0,0,0,3.38-.79,8.68,8.68,0,0,0,3.36-1.8l29.55-30.09a31.86,31.86,0,0,1,21.78-8.27q8.82,0,14,3.11h.51l100.06,59.1C1841.9,684.86,1846.21,690.54,1847.6,697.47Z" transform="translate(-1358.09 -276.99)"/><path d="M1733.79,573.88a17.5,17.5,0,0,1-17.5-17.5A113.91,113.91,0,0,0,1602.51,442.6a17.5,17.5,0,0,1,0-35c82,0,148.78,66.75,148.78,148.78A17.49,17.49,0,0,1,1733.79,573.88Z" transform="translate(-1358.09 -276.99)"/><path d="M1798.77,573.88a17.5,17.5,0,0,1-17.5-17.5c0-98.56-80.19-178.75-178.76-178.75a17.5,17.5,0,0,1,0-35,213.75,213.75,0,0,1,213.76,213.75A17.49,17.49,0,0,1,1798.77,573.88Z" transform="translate(-1358.09 -276.99)"/><path d="M1864.41,573.88a17.5,17.5,0,0,1-17.5-17.5c0-134.76-109.64-244.39-244.4-244.39a17.5,17.5,0,0,1,0-35,279.39,279.39,0,0,1,279.4,279.39A17.49,17.49,0,0,1,1864.41,573.88Z" transform="translate(-1358.09 -276.99)"/></svg>