<?xml version="1.0" encoding="utf-8"?>
<!-- Generator: Adobe Illustrator 25.3.1, SVG Export Plug-In . SVG Version: 6.00 Build 0)  -->
<svg version="1.1" id="Layer_1" xmlns="http://www.w3.org/2000/svg" xmlns:xlink="http://www.w3.org/1999/xlink" x="0px" y="0px"
	 viewBox="0 0 133 93.2" style="enable-background:new 0 0 133 93.2;" xml:space="preserve">
<style type="text/css">
	.st0{clip-path:url(#SVGID_2_);}
	.st1{fill:#FFFFFF;}
	.st2{fill:#FFFCFE;}
	.st3{fill:#4DCAF9;}
	.st4{fill:#60D3FC;}
	.st5{fill:#3370C3;}
	.st6{fill:#BAEEFC;}
	.st7{fill:#C7F0FE;}
	.st8{fill:#29539A;}
	.st9{fill:#3B91E2;}
</style>
<g>
	<defs>
		<rect id="SVGID_1_" y="0.2" width="133" height="93"/>
	</defs>
	<clipPath id="SVGID_2_">
		<use xlink:href="#SVGID_1_"  style="overflow:visible;"/>
	</clipPath>
	<g class="st0">
		<rect y="0.2" class="st1" width="133" height="93"/>
		<polygon class="st2" points="0,59.4 0,59.4 -3.8,66 -3.8,66 3.8,66 3.8,66 		"/>
		<polygon class="st2" points="3.8,52.8 7.6,46.2 7.6,46.2 0,46.2 		"/>
		<polygon class="st3" points="-3.8,39.6 0,46.2 0,46.2 3.8,39.6 		"/>
		<polygon class="st2" points="7.6,46.2 11.4,39.6 3.8,39.6 		"/>
		<polygon class="st3" points="3.8,39.6 7.6,33 7.6,33 0,33 		"/>
		<polygon class="st4" points="-3.8,26.4 0,33 0,33 3.8,26.4 		"/>
		<polygon class="st5" points="0,19.8 0,19.8 -3.8,26.4 -3.8,26.4 3.8,26.4 3.8,26.4 		"/>
		<polygon class="st6" points="7.6,33 11.4,26.4 3.8,26.4 		"/>
		<polygon class="st7" points="3.8,26.4 7.6,19.8 7.6,19.8 0,19.8 		"/>
		<polygon class="st2" points="7.6,33 3.8,26.4 0,33 7.6,33 7.6,33 		"/>
		<polygon class="st5" points="3.8,26.4 3.8,26.4 11.4,26.4 7.6,19.8 		"/>
		<polygon class="st8" points="0,6.6 0,6.6 -3.8,13.2 -3.8,13.2 3.8,13.2 3.8,13.2 		"/>
		<polygon class="st4" points="7.6,19.8 11.4,13.2 3.8,13.2 		"/>
		<polygon class="st4" points="3.8,13.2 7.6,6.6 7.6,6.6 0,6.6 		"/>
		<polygon class="st5" points="7.6,19.8 3.8,13.2 0,19.8 7.6,19.8 7.6,19.8 		"/>
		<polygon class="st3" points="3.8,13.2 3.8,13.2 11.4,13.2 7.6,6.6 		"/>
		<polygon class="st8" points="-3.8,0 0,6.6 0,6.6 3.8,0 		"/>
		<polygon class="st9" points="7.6,6.6 11.4,0 3.8,0 		"/>
		<polygon class="st9" points="7.6,6.6 3.8,0 0,6.6 7.6,6.6 7.6,6.6 		"/>
		<polygon class="st3" points="15.2,59.4 7.6,59.4 7.6,59.4 7.6,59.4 7.6,59.4 11.4,66 11.4,66 		"/>
		<polygon class="st4" points="11.4,39.6 11.4,39.6 7.6,46.2 7.6,46.2 7.6,46.2 7.6,46.2 7.6,46.2 15.2,46.2 15.2,46.2 		"/>
		<polygon class="st9" points="19,52.8 22.8,46.2 15.2,46.2 		"/>
		<polygon class="st4" points="15.2,33 7.6,33 7.6,33 7.6,33 7.6,33 11.4,39.6 11.4,39.6 		"/>
		<polygon class="st8" points="19,39.6 22.8,33 15.2,33 		"/>
		<polygon class="st9" points="11.4,26.4 15.2,33 19,26.4 19,26.4 11.4,26.4 		"/>
		<polygon class="st8" points="15.2,33 15.2,33 22.8,33 19,26.4 		"/>
		<polygon class="st5" points="15.2,19.8 7.6,19.8 7.6,19.8 7.6,19.8 7.6,19.8 11.4,26.4 11.4,26.4 		"/>
		<polygon class="st5" points="11.4,13.2 11.4,13.2 7.6,19.8 7.6,19.8 7.6,19.8 7.6,19.8 7.6,19.8 15.2,19.8 15.2,19.8 		"/>
		<polygon class="st8" points="19,26.4 22.8,19.8 15.2,19.8 		"/>
		<polygon class="st9" points="11.4,13.2 15.2,19.8 19,13.2 19,13.2 11.4,13.2 		"/>
		<polygon class="st5" points="15.2,19.8 15.2,19.8 22.8,19.8 19,13.2 		"/>
		<polygon class="st9" points="15.2,6.6 7.6,6.6 7.6,6.6 7.6,6.6 7.6,6.6 11.4,13.2 11.4,13.2 		"/>
		<polygon class="st5" points="11.4,0 11.4,0 7.6,6.6 7.6,6.6 7.6,6.6 7.6,6.6 7.6,6.6 15.2,6.6 15.2,6.6 		"/>
		<polygon class="st4" points="19,13.2 22.8,6.6 15.2,6.6 		"/>
		<polygon class="st3" points="11.4,0 15.2,6.6 19,0 19,0 11.4,0 		"/>
		<polygon class="st7" points="19,13.2 15.2,6.6 11.4,13.2 11.4,13.2 19,13.2 19,13.2 		"/>
		<polygon class="st8" points="15.2,6.6 15.2,6.6 22.8,6.6 19,0 		"/>
		<polygon class="st6" points="30.4,59.4 34.2,52.8 26.6,52.8 		"/>
		<polygon class="st4" points="22.8,46.2 26.6,52.8 30.4,46.2 30.4,46.2 22.8,46.2 		"/>
		<polygon class="st3" points="22.8,33 22.8,33 19,39.6 19,39.6 19,39.6 19,39.6 19,39.6 26.6,39.6 26.6,39.6 		"/>
		<polygon class="st9" points="30.4,46.2 26.6,39.6 22.8,46.2 22.8,46.2 30.4,46.2 30.4,46.2 		"/>
		<polygon class="st3" points="26.6,39.6 26.6,39.6 34.2,39.6 30.4,33 		"/>
		<polygon class="st2" points="26.6,26.4 19,26.4 19,26.4 19,26.4 19,26.4 22.8,33 22.8,33 		"/>
		<polygon class="st9" points="22.8,19.8 22.8,19.8 19,26.4 19,26.4 19,26.4 19,26.4 19,26.4 26.6,26.4 26.6,26.4 		"/>
		<polygon class="st4" points="22.8,19.8 26.6,26.4 30.4,19.8 30.4,19.8 22.8,19.8 		"/>
		<polygon class="st9" points="26.6,26.4 26.6,26.4 34.2,26.4 30.4,19.8 		"/>
		<polygon class="st2" points="26.6,13.2 19,13.2 19,13.2 19,13.2 19,13.2 22.8,19.8 22.8,19.8 		"/>
		<polygon class="st8" points="22.8,6.6 22.8,6.6 19,13.2 19,13.2 19,13.2 19,13.2 19,13.2 26.6,13.2 26.6,13.2 		"/>
		<polygon class="st9" points="30.4,19.8 34.2,13.2 26.6,13.2 		"/>
		<polygon class="st8" points="22.8,6.6 26.6,13.2 30.4,6.6 30.4,6.6 22.8,6.6 		"/>
		<polygon class="st8" points="30.4,19.8 26.6,13.2 22.8,19.8 22.8,19.8 30.4,19.8 30.4,19.8 		"/>
		<polygon class="st3" points="26.6,13.2 26.6,13.2 34.2,13.2 30.4,6.6 		"/>
		<polygon class="st3" points="26.6,0 19,0 19,0 19,0 19,0 22.8,6.6 22.8,6.6 		"/>
		<polygon class="st5" points="30.4,6.6 34.2,0 26.6,0 		"/>
		<polygon class="st5" points="30.4,6.6 26.6,0 22.8,6.6 22.8,6.6 30.4,6.6 30.4,6.6 		"/>
		<polygon class="st8" points="34.2,39.6 38,46.2 41.8,39.6 34.2,39.6 		"/>
		<polygon class="st4" points="38,33 30.4,33 30.4,33 30.4,33 30.4,33 34.2,39.6 34.2,39.6 		"/>
		<polygon class="st7" points="34.2,26.4 34.2,26.4 30.4,33 30.4,33 30.4,33 30.4,33 30.4,33 38,33 38,33 		"/>
		<polygon class="st6" points="45.6,33 38,33 41.8,39.6 41.8,39.6 41.8,39.6 		"/>
		<polygon class="st4" points="34.2,26.4 38,33 41.8,26.4 34.2,26.4 		"/>
		<polygon class="st9" points="41.8,26.4 38,33 38,33 45.6,33 41.8,26.4 		"/>
		<polygon class="st3" points="38,19.8 30.4,19.8 30.4,19.8 30.4,19.8 30.4,19.8 34.2,26.4 34.2,26.4 		"/>
		<polygon class="st4" points="34.2,13.2 34.2,13.2 30.4,19.8 30.4,19.8 30.4,19.8 30.4,19.8 30.4,19.8 38,19.8 38,19.8 		"/>
		<polygon class="st3" points="45.6,19.8 38,19.8 41.8,26.4 41.8,26.4 41.8,26.4 		"/>
		<polygon class="st9" points="34.2,13.2 38,19.8 41.8,13.2 34.2,13.2 		"/>
		<polygon class="st6" points="34.2,26.4 34.2,26.4 41.8,26.4 38,19.8 		"/>
		<polygon class="st5" points="41.8,13.2 38,19.8 38,19.8 45.6,19.8 41.8,13.2 		"/>
		<polygon class="st4" points="38,6.6 30.4,6.6 30.4,6.6 30.4,6.6 30.4,6.6 34.2,13.2 34.2,13.2 		"/>
		<polygon class="st7" points="34.2,0 34.2,0 30.4,6.6 30.4,6.6 30.4,6.6 30.4,6.6 30.4,6.6 38,6.6 38,6.6 		"/>
		<polygon class="st3" points="45.6,6.6 38,6.6 41.8,13.2 41.8,13.2 41.8,13.2 		"/>
		<polygon class="st9" points="34.2,0 38,6.6 41.8,0 34.2,0 		"/>
		<polygon class="st7" points="34.2,13.2 34.2,13.2 41.8,13.2 38,6.6 		"/>
		<polygon class="st5" points="41.8,0 38,6.6 38,6.6 45.6,6.6 41.8,0 		"/>
		<polygon class="st2" points="45.6,46.2 45.6,46.2 41.8,52.8 41.8,52.8 49.4,52.8 49.4,52.8 		"/>
		<polygon class="st7" points="53.2,46.2 57,39.6 49.4,39.6 		"/>
		<polygon class="st8" points="49.4,39.6 49.4,39.6 57,39.6 53.2,33 		"/>
		<polygon class="st5" points="41.8,26.4 45.6,33 45.6,33 49.4,26.4 		"/>
		<polygon class="st9" points="53.2,33 57,26.4 49.4,26.4 		"/>
		<polygon class="st5" points="49.4,26.4 53.2,19.8 53.2,19.8 45.6,19.8 		"/>
		<polygon class="st7" points="53.2,33 49.4,26.4 45.6,33 53.2,33 53.2,33 		"/>
		<polygon class="st8" points="49.4,26.4 49.4,26.4 57,26.4 53.2,19.8 		"/>
		<polygon class="st8" points="41.8,13.2 45.6,19.8 45.6,19.8 49.4,13.2 		"/>
		<polygon class="st4" points="49.4,13.2 53.2,6.6 53.2,6.6 45.6,6.6 		"/>
		<polygon class="st5" points="53.2,19.8 49.4,13.2 45.6,19.8 53.2,19.8 53.2,19.8 		"/>
		<polygon class="st6" points="49.4,13.2 49.4,13.2 57,13.2 53.2,6.6 		"/>
		<polygon class="st9" points="41.8,0 45.6,6.6 45.6,6.6 49.4,0 		"/>
		<polygon class="st4" points="53.2,6.6 57,0 49.4,0 		"/>
		<polygon class="st9" points="53.2,6.6 49.4,0 45.6,6.6 53.2,6.6 53.2,6.6 		"/>
		<polygon class="st3" points="60.8,46.2 53.2,46.2 53.2,46.2 53.2,46.2 53.2,46.2 57,52.8 57,52.8 		"/>
		<polygon class="st5" points="57,39.6 60.8,46.2 64.6,39.6 57,39.6 		"/>
		<polygon class="st4" points="65.8,41.7 64.6,39.6 64.6,39.6 60.8,46.2 60.8,46.2 68.4,46.2 68.4,46.2 		"/>
		<polygon class="st5" points="57,26.4 57,26.4 53.2,33 53.2,33 53.2,33 53.2,33 53.2,33 60.8,33 60.8,33 		"/>
		<polygon class="st9" points="64.6,39.6 67.2,35.1 68.4,33 60.8,33 64.6,39.6 64.6,39.6 64.6,39.6 		"/>
		<polygon class="st5" points="65.8,28.5 64.6,26.4 64.6,26.4 60.8,33 60.8,33 68.4,33 68.4,33 		"/>
		<polygon class="st7" points="60.8,19.8 53.2,19.8 53.2,19.8 53.2,19.8 53.2,19.8 57,26.4 57,26.4 		"/>
		<polygon class="st7" points="57,13.2 57,13.2 53.2,19.8 53.2,19.8 53.2,19.8 53.2,19.8 53.2,19.8 60.8,19.8 60.8,19.8 		"/>
		<polygon class="st8" points="64.6,26.4 67.2,21.9 68.4,19.8 60.8,19.8 64.6,26.4 64.6,26.4 64.6,26.4 		"/>
		<polygon class="st4" points="57,13.2 60.8,19.8 64.6,13.2 57,13.2 		"/>
		<polygon class="st4" points="65.8,15.3 64.6,13.2 64.6,13.2 60.8,19.8 60.8,19.8 68.4,19.8 68.4,19.8 		"/>
		<polygon class="st5" points="60.8,6.6 53.2,6.6 53.2,6.6 53.2,6.6 53.2,6.6 57,13.2 57,13.2 		"/>
		<polygon class="st5" points="57,0 57,0 53.2,6.6 53.2,6.6 53.2,6.6 53.2,6.6 53.2,6.6 60.8,6.6 60.8,6.6 		"/>
		<polygon class="st4" points="64.6,13.2 67.2,8.7 68.4,6.6 60.8,6.6 64.6,13.2 64.6,13.2 64.6,13.2 		"/>
		<polygon class="st7" points="57,0 60.8,6.6 64.6,0 57,0 		"/>
		<polygon class="st4" points="57,13.2 57,13.2 64.6,13.2 60.8,6.6 		"/>
		<polygon class="st8" points="65.8,2.1 64.6,0 64.6,0 60.8,6.6 60.8,6.6 68.4,6.6 68.4,6.6 		"/>
		<polygon class="st4" points="68.4,46.2 68.4,46.2 67.2,48.3 64.6,52.8 64.6,52.8 64.6,52.8 72.2,52.8 72.2,52.8 		"/>
		<polygon class="st7" points="72.2,52.8 76,46.2 76,46.2 68.4,46.2 		"/>
		<polygon class="st7" points="72.2,39.6 76,33 76,33 68.4,33 		"/>
		<polygon class="st5" points="64.6,26.4 65.8,28.5 68.4,33 68.4,33 68.4,33 72.2,26.4 		"/>
		<polygon class="st4" points="68.4,19.8 68.4,19.8 67.2,21.9 64.6,26.4 64.6,26.4 64.6,26.4 72.2,26.4 72.2,26.4 		"/>
		<polygon class="st7" points="76,33 79.8,26.4 72.2,26.4 		"/>
		<polygon class="st6" points="72.2,26.4 76,19.8 76,19.8 68.4,19.8 		"/>
		<polygon class="st4" points="76,33 72.2,26.4 68.4,33 76,33 76,33 		"/>
		<polygon class="st7" points="64.6,13.2 65.8,15.3 68.4,19.8 68.4,19.8 68.4,19.8 72.2,13.2 		"/>
		<polygon class="st9" points="68.4,6.6 68.4,6.6 67.2,8.7 64.6,13.2 64.6,13.2 64.6,13.2 72.2,13.2 72.2,13.2 		"/>
		<polygon class="st5" points="76,19.8 79.8,13.2 72.2,13.2 		"/>
		<polygon class="st2" points="72.2,13.2 76,6.6 76,6.6 68.4,6.6 		"/>
		<polygon class="st9" points="76,19.8 72.2,13.2 68.4,19.8 76,19.8 76,19.8 		"/>
		<polygon class="st8" points="72.2,13.2 72.2,13.2 79.8,13.2 76,6.6 		"/>
		<polygon class="st8" points="64.6,0 65.8,2.1 68.4,6.6 68.4,6.6 68.4,6.6 72.2,0 		"/>
		<polygon class="st2" points="76,6.6 79.8,0 72.2,0 		"/>
		<polygon class="st7" points="76,6.6 72.2,0 68.4,6.6 76,6.6 76,6.6 		"/>
		<polygon class="st9" points="79.8,52.8 79.8,52.8 87.4,52.8 83.6,46.2 		"/>
		<polygon class="st8" points="83.6,33 76,33 76,33 76,33 76,33 79.8,39.6 79.8,39.6 		"/>
		<polygon class="st6" points="91.2,33 83.6,33 87.4,39.6 87.4,39.6 87.4,39.6 		"/>
		<polygon class="st5" points="87.4,26.4 83.6,33 83.6,33 91.2,33 87.4,26.4 		"/>
		<polygon class="st3" points="83.6,19.8 76,19.8 76,19.8 76,19.8 76,19.8 79.8,26.4 79.8,26.4 		"/>
		<polygon class="st6" points="79.8,13.2 83.6,19.8 87.4,13.2 79.8,13.2 		"/>
		<polygon class="st6" points="79.8,26.4 79.8,26.4 87.4,26.4 83.6,19.8 		"/>
		<polygon class="st4" points="87.4,13.2 83.6,19.8 83.6,19.8 91.2,19.8 87.4,13.2 		"/>
		<polygon class="st7" points="83.6,6.6 76,6.6 76,6.6 76,6.6 76,6.6 79.8,13.2 79.8,13.2 		"/>
		<polygon class="st6" points="79.8,0 79.8,0 76,6.6 76,6.6 76,6.6 76,6.6 76,6.6 83.6,6.6 83.6,6.6 		"/>
		<polygon class="st9" points="91.2,6.6 83.6,6.6 87.4,13.2 87.4,13.2 87.4,13.2 		"/>
		<polygon class="st3" points="79.8,0 83.6,6.6 87.4,0 79.8,0 		"/>
		<polygon class="st3" points="79.8,13.2 79.8,13.2 87.4,13.2 83.6,6.6 		"/>
		<polygon class="st5" points="87.4,0 83.6,6.6 83.6,6.6 91.2,6.6 87.4,0 		"/>
		<polygon class="st4" points="95,52.8 98.8,46.2 98.8,46.2 91.2,46.2 		"/>
		<polygon class="st7" points="91.2,33 91.2,33 87.4,39.6 87.4,39.6 95,39.6 95,39.6 		"/>
		<polygon class="st4" points="98.8,46.2 102.6,39.6 95,39.6 		"/>
		<polygon class="st5" points="95,39.6 98.8,33 98.8,33 91.2,33 		"/>
		<polygon class="st9" points="87.4,26.4 91.2,33 91.2,33 95,26.4 		"/>
		<polygon class="st5" points="91.2,19.8 91.2,19.8 87.4,26.4 87.4,26.4 95,26.4 95,26.4 		"/>
		<polygon class="st6" points="98.8,33 102.6,26.4 95,26.4 		"/>
		<polygon class="st4" points="95,26.4 98.8,19.8 98.8,19.8 91.2,19.8 		"/>
		<polygon class="st7" points="98.8,33 95,26.4 91.2,33 98.8,33 98.8,33 		"/>
		<polygon class="st3" points="87.4,13.2 91.2,19.8 91.2,19.8 95,13.2 		"/>
		<polygon class="st3" points="91.2,6.6 91.2,6.6 87.4,13.2 87.4,13.2 95,13.2 95,13.2 		"/>
		<polygon class="st4" points="98.8,19.8 102.6,13.2 95,13.2 		"/>
		<polygon class="st5" points="95,13.2 98.8,6.6 98.8,6.6 91.2,6.6 		"/>
		<polygon class="st3" points="98.8,19.8 95,13.2 91.2,19.8 98.8,19.8 98.8,19.8 		"/>
		<polygon class="st9" points="95,13.2 95,13.2 102.6,13.2 98.8,6.6 		"/>
		<polygon class="st4" points="87.4,0 91.2,6.6 91.2,6.6 95,0 		"/>
		<polygon class="st9" points="98.8,6.6 102.6,0 95,0 		"/>
		<polygon class="st9" points="98.8,6.6 95,0 91.2,6.6 98.8,6.6 98.8,6.6 		"/>
		<polygon class="st8" points="111.4,54.9 110.2,52.8 110.2,52.8 106.4,59.4 106.4,59.4 114,59.4 114,59.4 		"/>
		<polygon class="st5" points="102.6,39.6 106.4,46.2 110.2,39.6 102.6,39.6 		"/>
		<polygon class="st8" points="106.4,33 98.8,33 98.8,33 98.8,33 98.8,33 102.6,39.6 102.6,39.6 		"/>
		<polygon class="st6" points="102.6,26.4 102.6,26.4 98.8,33 98.8,33 98.8,33 98.8,33 98.8,33 106.4,33 106.4,33 		"/>
		<polygon class="st2" points="102.6,26.4 106.4,33 110.2,26.4 102.6,26.4 		"/>
		<polygon class="st9" points="102.6,39.6 102.6,39.6 110.2,39.6 106.4,33 		"/>
		<polygon class="st8" points="111.4,28.5 110.2,26.4 110.2,26.4 106.4,33 106.4,33 114,33 114,33 		"/>
		<polygon class="st5" points="106.4,19.8 98.8,19.8 98.8,19.8 98.8,19.8 98.8,19.8 102.6,26.4 102.6,26.4 		"/>
		<polygon class="st2" points="102.6,13.2 102.6,13.2 98.8,19.8 98.8,19.8 98.8,19.8 98.8,19.8 98.8,19.8 106.4,19.8 106.4,19.8 		
			"/>
		<polygon class="st5" points="110.2,26.4 112.8,21.9 114,19.8 106.4,19.8 110.2,26.4 110.2,26.4 110.2,26.4 		"/>
		<polygon class="st7" points="102.6,13.2 106.4,19.8 110.2,13.2 102.6,13.2 		"/>
		<polygon class="st9" points="102.6,26.4 102.6,26.4 110.2,26.4 106.4,19.8 		"/>
		<polygon class="st8" points="111.4,15.3 110.2,13.2 110.2,13.2 106.4,19.8 106.4,19.8 114,19.8 114,19.8 		"/>
		<polygon class="st7" points="106.4,6.6 98.8,6.6 98.8,6.6 98.8,6.6 98.8,6.6 102.6,13.2 102.6,13.2 		"/>
		<polygon class="st7" points="102.6,0 102.6,0 98.8,6.6 98.8,6.6 98.8,6.6 98.8,6.6 98.8,6.6 106.4,6.6 106.4,6.6 		"/>
		<polygon class="st8" points="110.2,13.2 112.8,8.7 114,6.6 106.4,6.6 110.2,13.2 110.2,13.2 110.2,13.2 		"/>
		<polygon class="st2" points="102.6,0 106.4,6.6 110.2,0 102.6,0 		"/>
		<polygon class="st8" points="102.6,13.2 102.6,13.2 110.2,13.2 106.4,6.6 		"/>
		<polygon class="st5" points="111.4,2.1 110.2,0 110.2,0 106.4,6.6 106.4,6.6 114,6.6 114,6.6 		"/>
		<polygon class="st8" points="110.2,39.6 111.4,41.7 114,46.2 114,46.2 114,46.2 117.8,39.6 		"/>
		<polygon class="st7" points="117.8,39.6 121.6,33 121.6,33 114,33 		"/>
		<polygon class="st7" points="117.8,39.6 117.8,39.6 125.4,39.6 121.6,33 		"/>
		<polygon class="st9" points="110.2,26.4 111.4,28.5 114,33 114,33 114,33 117.8,26.4 		"/>
		<polygon class="st4" points="114,19.8 114,19.8 112.8,21.9 110.2,26.4 110.2,26.4 110.2,26.4 117.8,26.4 117.8,26.4 		"/>
		<polygon class="st7" points="121.6,33 125.4,26.4 117.8,26.4 		"/>
		<polygon class="st3" points="121.6,33 117.8,26.4 114,33 121.6,33 121.6,33 		"/>
		<polygon class="st9" points="117.8,26.4 117.8,26.4 125.4,26.4 121.6,19.8 		"/>
		<polygon class="st9" points="114,6.6 114,6.6 112.8,8.7 110.2,13.2 110.2,13.2 110.2,13.2 117.8,13.2 117.8,13.2 		"/>
		<polygon class="st7" points="121.6,19.8 125.4,13.2 117.8,13.2 		"/>
		<polygon class="st5" points="117.8,13.2 121.6,6.6 121.6,6.6 114,6.6 		"/>
		<polygon class="st6" points="121.6,19.8 117.8,13.2 114,19.8 121.6,19.8 121.6,19.8 		"/>
		<polygon class="st4" points="117.8,13.2 117.8,13.2 125.4,13.2 121.6,6.6 		"/>
		<polygon class="st3" points="110.2,0 111.4,2.1 114,6.6 114,6.6 114,6.6 117.8,0 		"/>
		<polygon class="st8" points="121.6,6.6 125.4,0 117.8,0 		"/>
		<polygon class="st9" points="121.6,6.6 117.8,0 114,6.6 121.6,6.6 121.6,6.6 		"/>
		<polygon class="st7" points="136.8,59.4 129.2,59.4 133,66 133,66 133,66 		"/>
		<polygon class="st4" points="125.4,39.6 125.4,39.6 121.6,46.2 121.6,46.2 121.6,46.2 121.6,46.2 121.6,46.2 129.2,46.2 
			129.2,46.2 		"/>
		<polygon class="st7" points="136.8,46.2 129.2,46.2 133,52.8 133,52.8 133,52.8 		"/>
		<polygon class="st4" points="136.8,33 129.2,33 133,39.6 133,39.6 133,39.6 		"/>
		<polygon class="st8" points="125.4,26.4 129.2,33 133,26.4 125.4,26.4 		"/>
		<polygon class="st3" points="129.2,19.8 121.6,19.8 121.6,19.8 121.6,19.8 121.6,19.8 125.4,26.4 125.4,26.4 		"/>
		<polygon class="st5" points="125.4,13.2 125.4,13.2 121.6,19.8 121.6,19.8 121.6,19.8 121.6,19.8 121.6,19.8 129.2,19.8 
			129.2,19.8 		"/>
		<polygon class="st9" points="136.8,19.8 129.2,19.8 133,26.4 133,26.4 133,26.4 		"/>
		<polygon class="st3" points="125.4,13.2 129.2,19.8 133,13.2 125.4,13.2 		"/>
		<polygon class="st3" points="125.4,26.4 125.4,26.4 133,26.4 129.2,19.8 		"/>
		<polygon class="st3" points="133,13.2 129.2,19.8 129.2,19.8 136.8,19.8 133,13.2 		"/>
		<polygon class="st8" points="129.2,6.6 121.6,6.6 121.6,6.6 121.6,6.6 121.6,6.6 125.4,13.2 125.4,13.2 		"/>
		<polygon class="st8" points="125.4,0 125.4,0 121.6,6.6 121.6,6.6 121.6,6.6 121.6,6.6 121.6,6.6 129.2,6.6 129.2,6.6 		"/>
		<polygon class="st4" points="136.8,6.6 129.2,6.6 133,13.2 133,13.2 133,13.2 		"/>
		<polygon class="st7" points="125.4,0 129.2,6.6 133,0 125.4,0 		"/>
		<polygon class="st2" points="125.4,13.2 125.4,13.2 133,13.2 129.2,6.6 		"/>
		<polygon class="st6" points="133,0 129.2,6.6 129.2,6.6 136.8,6.6 133,0 		"/>
	</g>
</g>
</svg>
